<?xml version="1.0" encoding="UTF-8" standalone="no"?>
<!DOCTYPE svg PUBLIC "-//W3C//DTD SVG 1.1//EN"
 "http://www.w3.org/Graphics/SVG/1.1/DTD/svg11.dtd">
<!-- Generated by graphviz version 2.36.0 (20140111.2315)
 -->
<!-- Title: mapped_file Pages: 1 -->
<svg width="622pt" height="402pt"
 viewBox="0.00 0.00 622.00 402.00" xmlns="http://www.w3.org/2000/svg" xmlns:xlink="http://www.w3.org/1999/xlink">
<g id="graph0" class="graph" transform="scale(1 1) rotate(0) translate(4 398)">
<title>mapped_file</title>
<polygon fill="white" stroke="none" points="-4,4 -4,-398 618,-398 618,4 -4,4"/>
<!-- Root -->
<g id="node1" class="node"><title>Root</title>
<ellipse fill="none" stroke="black" cx="280" cy="-366" rx="27.4223" ry="27.8951"/>
<text text-anchor="middle" x="280" y="-362.3" font-family="Times,serif" font-size="14.00">Root</text>
</g>
<!-- n1 -->
<g id="node2" class="node"><title>n1</title>
<ellipse fill="none" stroke="black" cx="206" cy="-266" rx="19.2474" ry="19.4965"/>
<text text-anchor="middle" x="206" y="-262.3" font-family="Times,serif" font-size="14.00">n1</text>
</g>
<!-- Root&#45;&gt;n1 -->
<g id="edge1" class="edge"><title>Root&#45;&gt;n1</title>
<path fill="none" stroke="red" d="M254.211,-355.412C238.625,-348.18 219.91,-336.631 210,-320 205.682,-312.754 203.938,-303.926 203.48,-295.569"/>
<polygon fill="red" stroke="red" points="206.98,-295.394 203.49,-285.39 199.98,-295.386 206.98,-295.394"/>
<text text-anchor="middle" x="219.5" y="-308.3" font-family="Times,serif" font-size="14.00">left</text>
</g>
<!-- n2 -->
<g id="node3" class="node"><title>n2</title>
<ellipse fill="none" stroke="black" cx="376" cy="-266" rx="19.2474" ry="19.4965"/>
<text text-anchor="middle" x="376" y="-262.3" font-family="Times,serif" font-size="14.00">n2</text>
</g>
<!-- Root&#45;&gt;n2 -->
<g id="edge2" class="edge"><title>Root&#45;&gt;n2</title>
<path fill="none" stroke="red" d="M288.655,-339.14C293.542,-327.394 300.584,-313.938 310,-304 320.728,-292.678 335.702,-283.899 348.676,-277.74"/>
<polygon fill="red" stroke="red" points="350.392,-280.807 358.104,-273.542 347.545,-274.412 350.392,-280.807"/>
<text text-anchor="middle" x="323" y="-308.3" font-family="Times,serif" font-size="14.00">right</text>
</g>
<!-- n1&#45;&gt;Root -->
<g id="edge15" class="edge"><title>n1&#45;&gt;Root</title>
<path fill="none" stroke="black" d="M217.327,-282.001C227.933,-296.047 244.089,-317.443 257.342,-334.993"/>
<polygon fill="black" stroke="black" points="254.758,-337.379 263.577,-343.251 260.344,-333.161 254.758,-337.379"/>
<text text-anchor="middle" x="263" y="-308.3" font-family="Times,serif" font-size="14.00">parent</text>
</g>
<!-- n3 -->
<g id="node4" class="node"><title>n3</title>
<ellipse fill="none" stroke="black" cx="108" cy="-184" rx="19.2474" ry="19.4965"/>
<text text-anchor="middle" x="108" y="-180.3" font-family="Times,serif" font-size="14.00">n3</text>
</g>
<!-- n1&#45;&gt;n3 -->
<g id="edge3" class="edge"><title>n1&#45;&gt;n3</title>
<path fill="none" stroke="red" d="M189.369,-255.19C172.226,-243.033 145.965,-221.981 127.812,-206.095"/>
<polygon fill="red" stroke="red" points="129.894,-203.261 120.104,-199.21 125.23,-208.482 129.894,-203.261"/>
</g>
<!-- n4 -->
<g id="node5" class="node"><title>n4</title>
<ellipse fill="none" stroke="black" cx="206" cy="-184" rx="19.2474" ry="19.4965"/>
<text text-anchor="middle" x="206" y="-180.3" font-family="Times,serif" font-size="14.00">n4</text>
</g>
<!-- n1&#45;&gt;n4 -->
<g id="edge4" class="edge"><title>n1&#45;&gt;n4</title>
<path fill="none" stroke="red" d="M200.28,-247.245C199.227,-237.095 198.981,-224.143 199.543,-212.685"/>
<polygon fill="red" stroke="red" points="203.034,-212.937 200.285,-202.705 196.053,-212.418 203.034,-212.937"/>
</g>
<!-- n2&#45;&gt;Root -->
<g id="edge16" class="edge"><title>n2&#45;&gt;Root</title>
<path fill="none" stroke="black" d="M365.726,-282.649C358.147,-293.651 347.237,-308.416 336,-320 328.169,-328.073 318.906,-336.043 310.191,-342.98"/>
<polygon fill="black" stroke="black" points="307.823,-340.387 302.069,-349.284 312.115,-345.917 307.823,-340.387"/>
<text text-anchor="middle" x="367" y="-308.3" font-family="Times,serif" font-size="14.00">parent</text>
</g>
<!-- n9 -->
<g id="node10" class="node"><title>n9</title>
<ellipse fill="none" stroke="black" cx="376" cy="-184" rx="19.2474" ry="19.4965"/>
<text text-anchor="middle" x="376" y="-180.3" font-family="Times,serif" font-size="14.00">n9</text>
</g>
<!-- n2&#45;&gt;n9 -->
<g id="edge9" class="edge"><title>n2&#45;&gt;n9</title>
<path fill="none" stroke="red" d="M370.28,-247.245C369.227,-237.095 368.981,-224.143 369.543,-212.685"/>
<polygon fill="red" stroke="red" points="373.034,-212.937 370.285,-202.705 366.053,-212.418 373.034,-212.937"/>
</g>
<!-- n10 -->
<g id="node11" class="node"><title>n10</title>
<ellipse fill="none" stroke="black" cx="503" cy="-184" rx="24.0718" ry="24.0958"/>
<text text-anchor="middle" x="503" y="-180.3" font-family="Times,serif" font-size="14.00">n10</text>
</g>
<!-- n2&#45;&gt;n10 -->
<g id="edge10" class="edge"><title>n2&#45;&gt;n10</title>
<path fill="none" stroke="red" d="M390.279,-252.85C410.346,-238.852 446.754,-215.821 472.871,-200.532"/>
<polygon fill="red" stroke="red" points="474.724,-203.504 481.636,-195.475 471.225,-197.441 474.724,-203.504"/>
</g>
<!-- n3&#45;&gt;n1 -->
<g id="edge17" class="edge"><title>n3&#45;&gt;n1</title>
<path fill="none" stroke="black" d="M124.413,-194.655C141.508,-206.758 167.828,-227.847 186.053,-243.787"/>
<polygon fill="black" stroke="black" points="184.004,-246.65 193.795,-250.698 188.666,-241.427 184.004,-246.65"/>
</g>
<!-- n5 -->
<g id="node6" class="node"><title>n5</title>
<ellipse fill="none" stroke="black" cx="27" cy="-98" rx="19.2474" ry="19.4965"/>
<text text-anchor="middle" x="27" y="-94.3" font-family="Times,serif" font-size="14.00">n5</text>
</g>
<!-- n3&#45;&gt;n5 -->
<g id="edge5" class="edge"><title>n3&#45;&gt;n5</title>
<path fill="none" stroke="red" d="M92.6794,-172.018C78.625,-159.597 58.2867,-138.998 43.8334,-122.839"/>
<polygon fill="red" stroke="red" points="46.0866,-120.098 36.8762,-114.861 40.8108,-124.699 46.0866,-120.098"/>
</g>
<!-- n6 -->
<g id="node7" class="node"><title>n6</title>
<ellipse fill="none" stroke="black" cx="108" cy="-98" rx="19.2474" ry="19.4965"/>
<text text-anchor="middle" x="108" y="-94.3" font-family="Times,serif" font-size="14.00">n6</text>
</g>
<!-- n3&#45;&gt;n6 -->
<g id="edge6" class="edge"><title>n3&#45;&gt;n6</title>
<path fill="none" stroke="red" d="M102.364,-165.186C101.203,-154.049 100.949,-139.471 101.604,-126.831"/>
<polygon fill="red" stroke="red" points="105.099,-127.025 102.367,-116.789 98.1191,-126.495 105.099,-127.025"/>
</g>
<!-- n4&#45;&gt;n1 -->
<g id="edge18" class="edge"><title>n4&#45;&gt;n1</title>
<path fill="none" stroke="black" d="M211.715,-202.705C212.77,-212.846 213.019,-225.796 212.46,-237.259"/>
<polygon fill="black" stroke="black" points="208.969,-237.014 211.72,-247.245 215.949,-237.531 208.969,-237.014"/>
</g>
<!-- n7 -->
<g id="node8" class="node"><title>n7</title>
<ellipse fill="none" stroke="black" cx="182" cy="-98" rx="19.2474" ry="19.4965"/>
<text text-anchor="middle" x="182" y="-94.3" font-family="Times,serif" font-size="14.00">n7</text>
</g>
<!-- n4&#45;&gt;n7 -->
<g id="edge7" class="edge"><title>n4&#45;&gt;n7</title>
<path fill="none" stroke="red" d="M196.074,-167.2C191.582,-156.1 186.906,-140.935 183.766,-127.723"/>
<polygon fill="red" stroke="red" points="187.127,-126.707 181.61,-117.662 180.283,-128.173 187.127,-126.707"/>
</g>
<!-- n8 -->
<g id="node9" class="node"><title>n8</title>
<ellipse fill="none" stroke="black" cx="256" cy="-98" rx="19.2474" ry="19.4965"/>
<text text-anchor="middle" x="256" y="-94.3" font-family="Times,serif" font-size="14.00">n8</text>
</g>
<!-- n4&#45;&gt;n8 -->
<g id="edge8" class="edge"><title>n4&#45;&gt;n8</title>
<path fill="none" stroke="red" d="M211.171,-164.773C217.542,-151.87 227.771,-134.502 236.986,-120.854"/>
<polygon fill="red" stroke="red" points="239.964,-122.702 242.844,-112.506 234.235,-118.681 239.964,-122.702"/>
</g>
<!-- n5&#45;&gt;n3 -->
<g id="edge19" class="edge"><title>n5&#45;&gt;n3</title>
<path fill="none" stroke="black" d="M42.2475,-109.917C56.4472,-122.457 77.1029,-143.395 91.6059,-159.652"/>
<polygon fill="black" stroke="black" points="88.9704,-161.955 98.176,-167.2 94.2503,-157.36 88.9704,-161.955"/>
</g>
<!-- n5&#45;&gt;n6 -->
<g id="edge30" class="edge"><title>n5&#45;&gt;n6</title>
<path fill="none" stroke="blue" d="M42.3651,-86.021C46.3504,-83.5481 50.7843,-81.302 55.2509,-80 65.4913,-77.0149 68.9987,-77.0553 79.2509,-80 80.7012,-80.4166 82.1493,-80.9301 83.5809,-81.517"/>
<polygon fill="blue" stroke="blue" points="82.1524,-84.7186 92.6425,-86.2048 85.3688,-78.5013 82.1524,-84.7186"/>
<text text-anchor="middle" x="67.2509" y="-83.8" font-family="Times,serif" font-size="14.00">next</text>
</g>
<!-- page0 -->
<g id="node16" class="node"><title>page0</title>
<polygon fill="none" stroke="green" points="54,-36 0,-36 0,-0 54,-0 54,-36"/>
<text text-anchor="middle" x="27" y="-14.3" font-family="Times,serif" font-size="14.00">page0</text>
</g>
<!-- n5&#45;&gt;page0 -->
<g id="edge43" class="edge"><title>n5&#45;&gt;page0</title>
<path fill="none" stroke="green" d="M27,-78.1184C27,-68.615 27,-56.9168 27,-46.4417"/>
<polygon fill="green" stroke="green" points="30.5001,-46.1114 27,-36.1114 23.5001,-46.1114 30.5001,-46.1114"/>
</g>
<!-- n6&#45;&gt;n3 -->
<g id="edge20" class="edge"><title>n6&#45;&gt;n3</title>
<path fill="none" stroke="black" d="M113.633,-116.789C114.796,-127.92 115.051,-142.497 114.398,-155.14"/>
<polygon fill="black" stroke="black" points="110.902,-154.95 113.636,-165.186 117.882,-155.479 110.902,-154.95"/>
</g>
<!-- n6&#45;&gt;n5 -->
<g id="edge29" class="edge"><title>n6&#45;&gt;n5</title>
<path fill="none" stroke="blue" d="M88.5727,-98C79.0484,-98 67.3689,-98 56.7517,-98"/>
<polygon fill="blue" stroke="blue" points="56.6079,-94.5001 46.6078,-98 56.6078,-101.5 56.6079,-94.5001"/>
<text text-anchor="middle" x="67.2509" y="-104.8" font-family="Times,serif" font-size="14.00">prev</text>
</g>
<!-- n6&#45;&gt;n7 -->
<g id="edge32" class="edge"><title>n6&#45;&gt;n7</title>
<path fill="none" stroke="blue" d="M124.477,-108.124C134.913,-112.701 145.35,-113.786 155.787,-111.381"/>
<polygon fill="blue" stroke="blue" points="156.989,-114.669 165.372,-108.19 154.779,-108.028 156.989,-114.669"/>
</g>
<!-- page1 -->
<g id="node17" class="node"><title>page1</title>
<polygon fill="none" stroke="green" points="135,-36 81,-36 81,-0 135,-0 135,-36"/>
<text text-anchor="middle" x="108" y="-14.3" font-family="Times,serif" font-size="14.00">page1</text>
</g>
<!-- n6&#45;&gt;page1 -->
<g id="edge44" class="edge"><title>n6&#45;&gt;page1</title>
<path fill="none" stroke="green" d="M108,-78.1184C108,-68.615 108,-56.9168 108,-46.4417"/>
<polygon fill="green" stroke="green" points="111.5,-46.1114 108,-36.1114 104.5,-46.1114 111.5,-46.1114"/>
</g>
<!-- n7&#45;&gt;n4 -->
<g id="edge21" class="edge"><title>n7&#45;&gt;n4</title>
<path fill="none" stroke="black" d="M191.913,-114.769C196.411,-125.874 201.094,-141.06 204.236,-154.286"/>
<polygon fill="black" stroke="black" points="200.877,-155.313 206.394,-164.358 207.722,-153.846 200.877,-155.313"/>
</g>
<!-- n7&#45;&gt;n6 -->
<g id="edge31" class="edge"><title>n7&#45;&gt;n6</title>
<path fill="none" stroke="blue" d="M165.372,-87.8096C154.935,-83.2671 144.498,-82.2154 134.061,-84.6544"/>
<polygon fill="blue" stroke="blue" points="132.841,-81.3723 124.477,-87.8757 135.071,-88.0076 132.841,-81.3723"/>
</g>
<!-- n7&#45;&gt;n8 -->
<g id="edge34" class="edge"><title>n7&#45;&gt;n8</title>
<path fill="none" stroke="blue" d="M198.477,-108.124C208.913,-112.701 219.35,-113.786 229.787,-111.381"/>
<polygon fill="blue" stroke="blue" points="230.989,-114.669 239.372,-108.19 228.779,-108.028 230.989,-114.669"/>
</g>
<!-- page2 -->
<g id="node18" class="node"><title>page2</title>
<polygon fill="none" stroke="green" points="209,-36 155,-36 155,-0 209,-0 209,-36"/>
<text text-anchor="middle" x="182" y="-14.3" font-family="Times,serif" font-size="14.00">page2</text>
</g>
<!-- n7&#45;&gt;page2 -->
<g id="edge45" class="edge"><title>n7&#45;&gt;page2</title>
<path fill="none" stroke="green" d="M182,-78.1184C182,-68.615 182,-56.9168 182,-46.4417"/>
<polygon fill="green" stroke="green" points="185.5,-46.1114 182,-36.1114 178.5,-46.1114 185.5,-46.1114"/>
</g>
<!-- n8&#45;&gt;n4 -->
<g id="edge22" class="edge"><title>n8&#45;&gt;n4</title>
<path fill="none" stroke="black" d="M251.012,-116.856C244.664,-129.777 234.348,-147.315 225.055,-161.085"/>
<polygon fill="black" stroke="black" points="222.027,-159.308 219.148,-169.504 227.757,-163.328 222.027,-159.308"/>
</g>
<!-- n8&#45;&gt;n7 -->
<g id="edge33" class="edge"><title>n8&#45;&gt;n7</title>
<path fill="none" stroke="blue" d="M239.372,-87.8096C228.935,-83.2671 218.498,-82.2154 208.061,-84.6544"/>
<polygon fill="blue" stroke="blue" points="206.841,-81.3723 198.477,-87.8757 209.071,-88.0076 206.841,-81.3723"/>
</g>
<!-- n11 -->
<g id="node12" class="node"><title>n11</title>
<ellipse fill="none" stroke="black" cx="335" cy="-98" rx="24.0718" ry="24.0958"/>
<text text-anchor="middle" x="335" y="-94.3" font-family="Times,serif" font-size="14.00">n11</text>
</g>
<!-- n8&#45;&gt;n11 -->
<g id="edge36" class="edge"><title>n8&#45;&gt;n11</title>
<path fill="none" stroke="blue" d="M272.973,-107.867C283.255,-112.209 293.537,-113.579 303.82,-111.975"/>
<polygon fill="blue" stroke="blue" points="304.817,-115.334 313.678,-109.527 303.129,-108.54 304.817,-115.334"/>
</g>
<!-- page3 -->
<g id="node19" class="node"><title>page3</title>
<polygon fill="none" stroke="green" points="283,-36 229,-36 229,-0 283,-0 283,-36"/>
<text text-anchor="middle" x="256" y="-14.3" font-family="Times,serif" font-size="14.00">page3</text>
</g>
<!-- n8&#45;&gt;page3 -->
<g id="edge46" class="edge"><title>n8&#45;&gt;page3</title>
<path fill="none" stroke="green" d="M256,-78.1184C256,-68.615 256,-56.9168 256,-46.4417"/>
<polygon fill="green" stroke="green" points="259.5,-46.1114 256,-36.1114 252.5,-46.1114 259.5,-46.1114"/>
</g>
<!-- n9&#45;&gt;n2 -->
<g id="edge23" class="edge"><title>n9&#45;&gt;n2</title>
<path fill="none" stroke="black" d="M381.715,-202.705C382.77,-212.846 383.019,-225.796 382.46,-237.259"/>
<polygon fill="black" stroke="black" points="378.969,-237.014 381.72,-247.245 385.949,-237.531 378.969,-237.014"/>
</g>
<!-- n9&#45;&gt;n11 -->
<g id="edge11" class="edge"><title>n9&#45;&gt;n11</title>
<path fill="none" stroke="red" d="M363.828,-168.751C357.38,-158.355 349.852,-143.854 343.936,-130.765"/>
<polygon fill="red" stroke="red" points="347.136,-129.348 339.951,-121.562 340.713,-132.13 347.136,-129.348"/>
</g>
<!-- n12 -->
<g id="node13" class="node"><title>n12</title>
<ellipse fill="none" stroke="black" cx="419" cy="-98" rx="24.0718" ry="24.0958"/>
<text text-anchor="middle" x="419" y="-94.3" font-family="Times,serif" font-size="14.00">n12</text>
</g>
<!-- n9&#45;&gt;n12 -->
<g id="edge12" class="edge"><title>n9&#45;&gt;n12</title>
<path fill="none" stroke="red" d="M379.652,-164.773C384.305,-153.436 391.649,-138.652 398.842,-125.972"/>
<polygon fill="red" stroke="red" points="401.955,-127.584 404.013,-117.191 395.923,-124.032 401.955,-127.584"/>
</g>
<!-- n10&#45;&gt;n2 -->
<g id="edge24" class="edge"><title>n10&#45;&gt;n2</title>
<path fill="none" stroke="black" d="M484.721,-199.913C462.899,-214.845 426.696,-237.6 402,-251.87"/>
<polygon fill="black" stroke="black" points="400.123,-248.91 393.152,-256.889 403.577,-254.999 400.123,-248.91"/>
</g>
<!-- n13 -->
<g id="node14" class="node"><title>n13</title>
<ellipse fill="none" stroke="black" cx="503" cy="-98" rx="24.0718" ry="24.0958"/>
<text text-anchor="middle" x="503" y="-94.3" font-family="Times,serif" font-size="14.00">n13</text>
</g>
<!-- n10&#45;&gt;n13 -->
<g id="edge13" class="edge"><title>n10&#45;&gt;n13</title>
<path fill="none" stroke="red" d="M496.943,-160.49C496.26,-151.567 496.082,-141.137 496.408,-131.428"/>
<polygon fill="red" stroke="red" points="499.912,-131.457 496.96,-121.281 492.922,-131.076 499.912,-131.457"/>
</g>
<!-- n14 -->
<g id="node15" class="node"><title>n14</title>
<ellipse fill="none" stroke="black" cx="587" cy="-98" rx="24.0718" ry="24.0958"/>
<text text-anchor="middle" x="587" y="-94.3" font-family="Times,serif" font-size="14.00">n14</text>
</g>
<!-- n10&#45;&gt;n14 -->
<g id="edge14" class="edge"><title>n10&#45;&gt;n14</title>
<path fill="none" stroke="red" d="M516.3,-163.939C528.113,-150.87 545.398,-133.525 560.011,-120.049"/>
<polygon fill="red" stroke="red" points="562.727,-122.312 567.802,-113.012 558.035,-117.118 562.727,-122.312"/>
</g>
<!-- n11&#45;&gt;n8 -->
<g id="edge35" class="edge"><title>n11&#45;&gt;n8</title>
<path fill="none" stroke="blue" d="M313.678,-86.4734C303.29,-82.9335 292.901,-82.4281 282.513,-84.9571"/>
<polygon fill="blue" stroke="blue" points="281.355,-81.6536 272.973,-88.1327 283.566,-88.2953 281.355,-81.6536"/>
</g>
<!-- n11&#45;&gt;n9 -->
<g id="edge25" class="edge"><title>n11&#45;&gt;n9</title>
<path fill="none" stroke="black" d="M349.554,-117.191C356.107,-128.302 363.389,-142.731 368.846,-155.247"/>
<polygon fill="black" stroke="black" points="365.729,-156.868 372.782,-164.773 372.198,-154.195 365.729,-156.868"/>
</g>
<!-- n11&#45;&gt;n12 -->
<g id="edge38" class="edge"><title>n11&#45;&gt;n12</title>
<path fill="none" stroke="blue" d="M355.344,-111.241C366.611,-116.23 377.878,-117.326 389.146,-114.528"/>
<polygon fill="blue" stroke="blue" points="390.299,-117.832 398.61,-111.261 388.015,-111.215 390.299,-117.832"/>
</g>
<!-- page4 -->
<g id="node20" class="node"><title>page4</title>
<polygon fill="none" stroke="green" points="362,-36 308,-36 308,-0 362,-0 362,-36"/>
<text text-anchor="middle" x="335" y="-14.3" font-family="Times,serif" font-size="14.00">page4</text>
</g>
<!-- n11&#45;&gt;page4 -->
<g id="edge47" class="edge"><title>n11&#45;&gt;page4</title>
<path fill="none" stroke="green" d="M335,-73.5974C335,-65.0476 335,-55.3003 335,-46.4308"/>
<polygon fill="green" stroke="green" points="338.5,-46.1868 335,-36.1868 331.5,-46.1869 338.5,-46.1868"/>
</g>
<!-- n12&#45;&gt;n9 -->
<g id="edge26" class="edge"><title>n12&#45;&gt;n9</title>
<path fill="none" stroke="black" d="M413.512,-121.562C408.3,-133.523 400.803,-148.183 393.761,-160.182"/>
<polygon fill="black" stroke="black" points="390.751,-158.395 388.511,-168.751 396.72,-162.052 390.751,-158.395"/>
</g>
<!-- n12&#45;&gt;n11 -->
<g id="edge37" class="edge"><title>n12&#45;&gt;n11</title>
<path fill="none" stroke="blue" d="M398.61,-84.7389C387.343,-79.7598 376.076,-78.6748 364.808,-81.4838"/>
<polygon fill="blue" stroke="blue" points="363.649,-78.1812 355.344,-84.7593 365.939,-84.7963 363.649,-78.1812"/>
</g>
<!-- n12&#45;&gt;n13 -->
<g id="edge40" class="edge"><title>n12&#45;&gt;n13</title>
<path fill="none" stroke="blue" d="M439.344,-111.241C450.611,-116.23 461.878,-117.326 473.146,-114.528"/>
<polygon fill="blue" stroke="blue" points="474.299,-117.832 482.61,-111.261 472.015,-111.215 474.299,-117.832"/>
</g>
<!-- page5 -->
<g id="node21" class="node"><title>page5</title>
<polygon fill="none" stroke="green" points="446,-36 392,-36 392,-0 446,-0 446,-36"/>
<text text-anchor="middle" x="419" y="-14.3" font-family="Times,serif" font-size="14.00">page5</text>
</g>
<!-- n12&#45;&gt;page5 -->
<g id="edge48" class="edge"><title>n12&#45;&gt;page5</title>
<path fill="none" stroke="green" d="M419,-73.5974C419,-65.0476 419,-55.3003 419,-46.4308"/>
<polygon fill="green" stroke="green" points="422.5,-46.1868 419,-36.1868 415.5,-46.1869 422.5,-46.1868"/>
</g>
<!-- n13&#45;&gt;n10 -->
<g id="edge27" class="edge"><title>n13&#45;&gt;n10</title>
<path fill="none" stroke="black" d="M509.04,-121.281C509.731,-130.177 509.918,-140.6 509.6,-150.322"/>
<polygon fill="black" stroke="black" points="506.095,-150.317 509.057,-160.49 513.085,-150.69 506.095,-150.317"/>
</g>
<!-- n13&#45;&gt;n12 -->
<g id="edge39" class="edge"><title>n13&#45;&gt;n12</title>
<path fill="none" stroke="blue" d="M482.61,-84.7389C471.343,-79.7598 460.076,-78.6748 448.808,-81.4838"/>
<polygon fill="blue" stroke="blue" points="447.649,-78.1812 439.344,-84.7593 449.939,-84.7963 447.649,-78.1812"/>
</g>
<!-- n13&#45;&gt;n14 -->
<g id="edge42" class="edge"><title>n13&#45;&gt;n14</title>
<path fill="none" stroke="blue" d="M523.344,-111.241C534.611,-116.23 545.878,-117.326 557.146,-114.528"/>
<polygon fill="blue" stroke="blue" points="558.299,-117.832 566.61,-111.261 556.015,-111.215 558.299,-117.832"/>
</g>
<!-- page6 -->
<g id="node22" class="node"><title>page6</title>
<polygon fill="none" stroke="green" points="530,-36 476,-36 476,-0 530,-0 530,-36"/>
<text text-anchor="middle" x="503" y="-14.3" font-family="Times,serif" font-size="14.00">page6</text>
</g>
<!-- n13&#45;&gt;page6 -->
<g id="edge49" class="edge"><title>n13&#45;&gt;page6</title>
<path fill="none" stroke="green" d="M503,-73.5974C503,-65.0476 503,-55.3003 503,-46.4308"/>
<polygon fill="green" stroke="green" points="506.5,-46.1868 503,-36.1868 499.5,-46.1869 506.5,-46.1868"/>
</g>
<!-- n14&#45;&gt;n10 -->
<g id="edge28" class="edge"><title>n14&#45;&gt;n10</title>
<path fill="none" stroke="black" d="M573.542,-118.235C561.685,-131.338 544.396,-148.676 529.811,-162.115"/>
<polygon fill="black" stroke="black" points="527.117,-159.832 522.037,-169.129 531.806,-165.029 527.117,-159.832"/>
</g>
<!-- n14&#45;&gt;n13 -->
<g id="edge41" class="edge"><title>n14&#45;&gt;n13</title>
<path fill="none" stroke="blue" d="M566.61,-84.7389C555.343,-79.7598 544.076,-78.6748 532.808,-81.4838"/>
<polygon fill="blue" stroke="blue" points="531.649,-78.1812 523.344,-84.7593 533.939,-84.7963 531.649,-78.1812"/>
</g>
<!-- page7 -->
<g id="node23" class="node"><title>page7</title>
<polygon fill="none" stroke="green" points="614,-36 560,-36 560,-0 614,-0 614,-36"/>
<text text-anchor="middle" x="587" y="-14.3" font-family="Times,serif" font-size="14.00">page7</text>
</g>
<!-- n14&#45;&gt;page7 -->
<g id="edge50" class="edge"><title>n14&#45;&gt;page7</title>
<path fill="none" stroke="green" d="M587,-73.5974C587,-65.0476 587,-55.3003 587,-46.4308"/>
<polygon fill="green" stroke="green" points="590.5,-46.1868 587,-36.1868 583.5,-46.1869 590.5,-46.1868"/>
</g>
</g>
</svg>
